<?xml version="1.0" encoding="utf-8"?>
<!-- Generator: Adobe Illustrator 19.2.0, SVG Export Plug-In . SVG Version: 6.00 Build 0)  -->
<svg version="1.1" id="Layer_1" xmlns="http://www.w3.org/2000/svg" xmlns:xlink="http://www.w3.org/1999/xlink" x="0px" y="0px"
	 viewBox="0 0 196 70" style="enable-background:new 0 0 196 70;" xml:space="preserve">
<style type="text/css">
	.st0{fill:#FFFFFF;}
</style>
<g>
	<path class="st0" d="M7.3,41.8L0.5,55.5l6.9,13.7h36.3l6.9-13.7l-6.9-13.7H7.3z M41.9,66.5H9l-5.5-11l5.5-11h32.9l5.5,11L41.9,66.5
		z"/>
	<path class="st0" d="M22.1,55.2c0.4-0.2,1.2-0.6,1.2-2c0-1-0.6-2.5-3-2.5h-5.1v9.6h4.5c2,0,2.6-0.3,3.1-0.8c0.5-0.5,0.9-1.2,0.9-2
		C23.6,56.6,23.3,55.6,22.1,55.2z M17.2,52.1h2.6c0.9,0,1.5,0.2,1.5,1c0,0.8-0.6,1.1-1.5,1.1h-2.6V52.1z M20,59h-2.7v-2.7h2.8
		c0.7,0,1.5,0.4,1.5,1.3C21.5,58.5,21,59,20,59z"/>
	<polygon class="st0" points="31.8,55 29.7,50.7 27.3,50.7 31,56.8 31,60.4 33,60.4 33,56.8 36.1,50.7 33.7,50.7 	"/>
	<path class="st0" d="M12.1,29.7c-3.1,0-5.9-1.6-8.2-3.7L0,33.5c3.6,2.5,8,4,12.4,4c3.6,0,7.3-1,10-3.3c2.8-2.4,3.7-6,3.7-9.5
		c0-5.7-3.8-8.2-8.7-9.7l-2.3-0.7C13.5,13.8,11,13,11,10.9c0-2,2.3-3,3.9-3c2.3,0,4.4,0.9,6.1,2.3l3.7-7.1
		c-3.1-1.8-7.5-2.9-11.1-2.9C6.5,0.2,1.4,4.9,1.4,12.1c0,6.9,3.8,8.4,9.6,10c2,0.6,5.6,1.5,5.6,4C16.6,28.6,14.3,29.7,12.1,29.7z"/>
	<path class="st0" d="M45.5,37.7c11.4,0,19.6-8.1,19.6-19.5C65.1,7.5,55.7,0,45.5,0C35.4,0,26,7.5,26,18.2
		C26,29.7,34.2,37.7,45.5,37.7z M45.5,8.9c5.5,0,10,4.5,10,9.3c0,6.1-4.5,10.6-10,10.6c-5.5,0-10-4.5-10-10.6
		C35.5,13.4,40,8.9,45.5,8.9z"/>
	<path class="st0" d="M81.8,37.5c4.1,0,8.6-1,11.6-3.9c3.5-3.4,3.5-7.9,3.5-12.5V1.3H88v18.5c0,4.6-0.3,9.6-6.2,9.6s-6.2-5-6.2-9.6
		V1.3H66v19.8c0,4.6,0.4,9.1,3.9,12.5C72.9,36.5,77.7,37.5,81.8,37.5z"/>
	<polygon class="st0" points="109.3,15 109.6,15 126.5,36.3 135.4,36.3 135.4,1.3 126.5,1.3 126.5,22.6 126.4,22.6 109.5,1.3 
		100.3,1.3 100.3,36.3 109.3,36.3 	"/>
	<path class="st0" d="M169.9,18.8c0-10-8.1-17.5-18-17.5h-13.1v35h13.1C161.7,36.3,169.9,28.7,169.9,18.8z M147.8,28.8V8.8h2.5
		c5.9,0,10.1,3.6,10.1,10c0,6.9-4.7,10-10.2,10H147.8z"/>
	<path class="st0" d="M180.8,22.1c2,0.6,5.6,1.5,5.6,4c0,2.5-2.3,3.6-4.5,3.6c-3.1,0-5.9-1.6-8.2-3.7l-3.9,7.4c3.6,2.5,8,4,12.4,4
		c3.6,0,7.3-1,10-3.3c2.8-2.4,3.7-6,3.7-9.5c0-5.7-3.8-8.2-8.7-9.7l-2.3-0.7c-1.6-0.5-4.1-1.3-4.1-3.4c0-2,2.3-3,3.9-3
		c2.3,0,4.4,0.9,6.1,2.3l3.7-7.1c-3.1-1.8-7.5-2.9-11.1-2.9c-7.1,0-12.2,4.7-12.2,11.9C171.2,19,175,20.5,180.8,22.1z"/>
	<path class="st0" d="M61.2,58.2c0,1.2-0.2,3-1.8,3c-1.6,0-2.2-1.6-2.7-2.9L53.2,67c2.3,1.8,5.3,3,8.2,3c5.6,0,9.4-4,9.4-9.6V41.8
		h-9.6V58.2z"/>
	<path class="st0" d="M89.4,41.1c-8.5,0-15.5,5.7-15.5,14.5c0,9,6.9,14.4,15.5,14.4s15.5-5.4,15.5-14.4
		C104.8,46.9,97.9,41.1,89.4,41.1z M89.4,61.2c-3.1,0-5.2-2.2-5.2-5.4c0-3,2-5.5,5.2-5.5c3.2,0,5.2,2.5,5.2,5.5
		C94.6,59,92.5,61.2,89.4,61.2z"/>
	<polygon class="st0" points="123.7,50.7 117.5,50.7 117.5,41.8 107.9,41.8 107.9,69.3 117.5,69.3 117.5,59.7 123.7,59.7 
		123.7,69.3 133.3,69.3 133.3,41.8 123.7,41.8 	"/>
	<path class="st0" d="M144.5,41.8l-9.7,27.5h10.8l0.8-3.4h7.7l0.9,3.4h10.8l-10-27.5H144.5z M148.2,59l1.9-8.2h0.4
		c0.2,1.4,0.4,2.3,0.7,3.5l1.2,4.8H148.2z"/>
	<path class="st0" d="M185.5,50c0,2.4,0.2,4.9,0.6,7h-0.3l-9.1-15.1H167v27.5h9.6v-8.8c0-1.9-0.2-3.5-0.5-5.6h0.3l8.9,14.4h9.8V41.8
		h-9.6V50z"/>
</g>
</svg>
